<svg width="312" height="73" fill="none" xmlns="http://www.w3.org/2000/svg"><path d="M125 22H0" stroke="url(#paint0_linear)" stroke-width="3"/><path d="M312 22H187" stroke="url(#paint1_linear)" stroke-width="3"/><path d="M153.781 28.25c0 1.333-.541 2.5-1.625 3.5-1.062 1-2.323 1.5-3.781 1.5-2.292 0-4.052-.76-5.281-2.281-1.229-1.521-1.844-3.625-1.844-6.313 0-2.5 1.052-5.02 3.156-7.562 2.125-2.542 4.677-4.469 7.656-5.782l1.376 2.22c-2.355 1.145-4.198 2.478-5.532 4-1.333 1.52-2.104 3.364-2.312 5.53h1.75c1.291 0 2.344.146 3.156.438.812.292 1.469.698 1.969 1.219.479.5.812 1.052 1 1.656a5.72 5.72 0 01.312 1.875zm15.407 0c0 1.333-.542 2.5-1.626 3.5-1.062 1-2.322 1.5-3.781 1.5-2.291 0-4.052-.76-5.281-2.281-1.229-1.521-1.844-3.625-1.844-6.313 0-2.5 1.052-5.02 3.156-7.562 2.126-2.542 4.678-4.469 7.657-5.782l1.375 2.22c-2.354 1.145-4.198 2.478-5.532 4-1.333 1.52-2.104 3.364-2.312 5.53h1.75c1.292 0 2.344.146 3.156.438.813.292 1.469.698 1.969 1.219.479.5.813 1.052 1 1.656.208.604.313 1.23.313 1.875z" fill="#fff"/><defs><linearGradient id="paint0_linear" x1="106.713" y1="-44" x2="61.932" y2="46.016" gradientUnits="userSpaceOnUse"><stop stop-color="#F9E0B0"/><stop offset="1" stop-color="#855024"/></linearGradient><linearGradient id="paint1_linear" x1="293.713" y1="-44" x2="248.932" y2="46.016" gradientUnits="userSpaceOnUse"><stop stop-color="#F9E0B0"/><stop offset="1" stop-color="#855024"/></linearGradient></defs></svg>