<svg width="18" height="18" fill="none" xmlns="http://www.w3.org/2000/svg"><path d="M12.627 0H5.373C2.418 0 0 2.418 0 5.373v7.254C0 15.582 2.418 18 5.373 18h7.254C15.582 18 18 15.582 18 12.627V5.373C17.91 2.418 15.492 0 12.627 0zm3.492 12.627c0 1.97-1.611 3.492-3.492 3.492H5.373c-1.97 0-3.492-1.611-3.492-3.492V5.373c0-1.97 1.612-3.492 3.492-3.492h7.254c1.97 0 3.492 1.612 3.492 3.492v7.254z" fill="#fff"/><path d="M8.955 4.388A4.625 4.625 0 004.3 9.045 4.625 4.625 0 008.955 13.7a4.625 4.625 0 004.657-4.656 4.625 4.625 0 00-4.657-4.657zm0 7.433c-1.522 0-2.865-1.254-2.865-2.866 0-1.522 1.253-2.866 2.865-2.866a2.83 2.83 0 012.866 2.866 2.829 2.829 0 01-2.866 2.866zm4.657-6.358a1.075 1.075 0 100-2.15 1.075 1.075 0 000 2.15z" fill="#fff"/></svg>