<svg width="216" height="28" fill="none" xmlns="http://www.w3.org/2000/svg"><path d="M3.904 26H.16L5.2.188l8.352 18.648L21.976.188 26.512 26h-3.744L20.32 11.528l-6.984 15.588-6.912-15.624L3.904 26zm44.984 0l-2.52-5.796h-10.26L33.48 26h-3.96L41.472.584 52.848 26h-3.96zM37.62 16.748h7.272l-3.564-8.136-3.708 8.136zM59.46 26V15.632L51.578 1.988h4.176l5.544 9.612 5.544-9.612h4.176l-7.884 13.644V26H59.46zM75.94 5.12c2.376-2.376 5.352-3.564 8.928-3.564 3.576 0 6.552 1.188 8.928 3.564 2.376 2.376 3.564 5.34 3.564 8.892 0 3.552-1.188 6.516-3.564 8.892-2.376 2.376-5.352 3.564-8.928 3.564-3.576 0-6.552-1.188-8.928-3.564-2.376-2.376-3.564-5.34-3.564-8.892 0-3.552 1.188-6.516 3.564-8.892zm2.592 15.444c1.656 1.68 3.768 2.52 6.336 2.52 2.568 0 4.68-.84 6.336-2.52 1.656-1.704 2.484-3.888 2.484-6.552 0-2.664-.828-4.836-2.484-6.516-1.656-1.704-3.768-2.556-6.336-2.556-2.568 0-4.68.852-6.336 2.556-1.656 1.68-2.484 3.852-2.484 6.516s.828 4.848 2.484 6.552zM106.362 26h-3.672V.368l17.424 18.252V1.988h3.672v25.488L106.362 9.224V26zm37.155-24.012v3.456h-9.576v6.084h9.288v3.456h-9.288v7.56h9.576V26h-13.248V1.988h13.248zm13.392 12.6h-3.096V26h-1.584V1.988h4.644c2.04 0 3.72.552 5.04 1.656 1.32 1.08 1.98 2.616 1.98 4.608 0 1.968-.636 3.516-1.908 4.644-1.272 1.128-2.964 1.692-5.076 1.692zm-3.096-11.16v9.72h3.168c1.584 0 2.856-.432 3.816-1.296.96-.888 1.44-2.076 1.44-3.564 0-1.512-.492-2.7-1.476-3.564-.96-.864-2.304-1.296-4.032-1.296h-2.916zM183.775 26h-1.8l-7.776-11.34h-.72V26h-1.584V1.988h3.456c2.184 0 3.876.408 5.076 1.224 1.656 1.152 2.484 2.868 2.484 5.148 0 1.32-.324 2.508-.972 3.564-.648 1.032-1.668 1.788-3.06 2.268a9.062 9.062 0 01-2.952.468L183.775 26zM173.479 3.428v9.792h2.304c1.704 0 3.036-.432 3.996-1.296.984-.864 1.476-2.064 1.476-3.6 0-2.016-.708-3.408-2.124-4.176-.84-.48-2.064-.72-3.672-.72h-1.98zm20.774 1.836c2.4-2.4 5.352-3.6 8.856-3.6 3.504 0 6.456 1.2 8.856 3.6 2.4 2.4 3.6 5.328 3.6 8.784 0 3.456-1.2 6.384-3.6 8.784-2.4 2.376-5.352 3.564-8.856 3.564-3.528 0-6.492-1.188-8.892-3.564-2.376-2.4-3.564-5.328-3.564-8.784 0-3.456 1.2-6.384 3.6-8.784zm1.152 16.56c2.064 2.088 4.632 3.132 7.704 3.132s5.64-1.044 7.704-3.132c2.064-2.112 3.096-4.704 3.096-7.776 0-3.096-1.032-5.688-3.096-7.776-2.064-2.112-4.632-3.168-7.704-3.168s-5.64 1.056-7.704 3.168c-2.064 2.088-3.096 4.68-3.096 7.776 0 3.072 1.032 5.664 3.096 7.776z" fill="#fff"/></svg>