<?xml version="1.0" encoding="utf-8"?><svg xmlns="http://www.w3.org/2000/svg" xmlns:xlink="http://www.w3.org/1999/xlink"><symbol viewBox="0 0 216 28" id="MAYONEPRO" xmlns="http://www.w3.org/2000/svg"><path d="M3.904 26H.16L5.2.188l8.352 18.648L21.976.188 26.512 26h-3.744L20.32 11.528l-6.984 15.588-6.912-15.624L3.904 26zm44.984 0l-2.52-5.796h-10.26L33.48 26h-3.96L41.472.584 52.848 26h-3.96zM37.62 16.748h7.272l-3.564-8.136-3.708 8.136zM59.46 26V15.632L51.578 1.988h4.176l5.544 9.612 5.544-9.612h4.176l-7.884 13.644V26H59.46zM75.94 5.12c2.376-2.376 5.352-3.564 8.928-3.564 3.576 0 6.552 1.188 8.928 3.564 2.376 2.376 3.564 5.34 3.564 8.892 0 3.552-1.188 6.516-3.564 8.892-2.376 2.376-5.352 3.564-8.928 3.564-3.576 0-6.552-1.188-8.928-3.564-2.376-2.376-3.564-5.34-3.564-8.892 0-3.552 1.188-6.516 3.564-8.892zm2.592 15.444c1.656 1.68 3.768 2.52 6.336 2.52 2.568 0 4.68-.84 6.336-2.52 1.656-1.704 2.484-3.888 2.484-6.552 0-2.664-.828-4.836-2.484-6.516-1.656-1.704-3.768-2.556-6.336-2.556-2.568 0-4.68.852-6.336 2.556-1.656 1.68-2.484 3.852-2.484 6.516s.828 4.848 2.484 6.552zM106.362 26h-3.672V.368l17.424 18.252V1.988h3.672v25.488L106.362 9.224V26zm37.155-24.012v3.456h-9.576v6.084h9.288v3.456h-9.288v7.56h9.576V26h-13.248V1.988h13.248zm13.392 12.6h-3.096V26h-1.584V1.988h4.644c2.04 0 3.72.552 5.04 1.656 1.32 1.08 1.98 2.616 1.98 4.608 0 1.968-.636 3.516-1.908 4.644-1.272 1.128-2.964 1.692-5.076 1.692zm-3.096-11.16v9.72h3.168c1.584 0 2.856-.432 3.816-1.296.96-.888 1.44-2.076 1.44-3.564 0-1.512-.492-2.7-1.476-3.564-.96-.864-2.304-1.296-4.032-1.296h-2.916zM183.775 26h-1.8l-7.776-11.34h-.72V26h-1.584V1.988h3.456c2.184 0 3.876.408 5.076 1.224 1.656 1.152 2.484 2.868 2.484 5.148 0 1.32-.324 2.508-.972 3.564-.648 1.032-1.668 1.788-3.06 2.268a9.062 9.062 0 01-2.952.468L183.775 26zM173.479 3.428v9.792h2.304c1.704 0 3.036-.432 3.996-1.296.984-.864 1.476-2.064 1.476-3.6 0-2.016-.708-3.408-2.124-4.176-.84-.48-2.064-.72-3.672-.72h-1.98zm20.774 1.836c2.4-2.4 5.352-3.6 8.856-3.6 3.504 0 6.456 1.2 8.856 3.6 2.4 2.4 3.6 5.328 3.6 8.784 0 3.456-1.2 6.384-3.6 8.784-2.4 2.376-5.352 3.564-8.856 3.564-3.528 0-6.492-1.188-8.892-3.564-2.376-2.4-3.564-5.328-3.564-8.784 0-3.456 1.2-6.384 3.6-8.784zm1.152 16.56c2.064 2.088 4.632 3.132 7.704 3.132s5.64-1.044 7.704-3.132c2.064-2.112 3.096-4.704 3.096-7.776 0-3.096-1.032-5.688-3.096-7.776-2.064-2.112-4.632-3.168-7.704-3.168s-5.64 1.056-7.704 3.168c-2.064 2.088-3.096 4.68-3.096 7.776 0 3.072 1.032 5.664 3.096 7.776z"/></symbol><symbol viewBox="0 0 26 26" id="check" xmlns="http://www.w3.org/2000/svg"><path d="M13 25c6.627 0 12-5.373 12-12S19.627 1 13 1 1 6.373 1 13s5.373 12 12 12z" stroke="#000" stroke-width="2" stroke-miterlimit="10"/><path d="M7.086 13l3.771 3.771 7.714-7.628" stroke="#000" stroke-width="2" stroke-miterlimit="10"/></symbol><symbol viewBox="0 0 27 26" id="check-white" xmlns="http://www.w3.org/2000/svg"><path d="M13.284 25c6.784 0 12.284-5.373 12.284-12s-5.5-12-12.284-12C6.5 1 1 6.373 1 13s5.5 12 12.284 12z" stroke="#fff" stroke-width="2" stroke-miterlimit="10"/><path d="M7.23 13l3.86 3.771 7.897-7.628" stroke="#fff" stroke-width="2" stroke-miterlimit="10"/></symbol><symbol viewBox="0 0 312 73" id="header1" xmlns="http://www.w3.org/2000/svg"><path d="M125 22H0" stroke="url(#da)" stroke-width="3"/><path d="M312 22H187" stroke="url(#db)" stroke-width="3"/><path d="M153.781 28.25c0 1.333-.541 2.5-1.625 3.5-1.062 1-2.323 1.5-3.781 1.5-2.292 0-4.052-.76-5.281-2.281-1.229-1.521-1.844-3.625-1.844-6.313 0-2.5 1.052-5.02 3.156-7.562 2.125-2.542 4.677-4.469 7.656-5.782l1.376 2.22c-2.355 1.145-4.198 2.478-5.532 4-1.333 1.52-2.104 3.364-2.312 5.53h1.75c1.291 0 2.344.146 3.156.438.812.292 1.469.698 1.969 1.219.479.5.812 1.052 1 1.656a5.72 5.72 0 01.312 1.875zm15.407 0c0 1.333-.542 2.5-1.626 3.5-1.062 1-2.322 1.5-3.781 1.5-2.291 0-4.052-.76-5.281-2.281-1.229-1.521-1.844-3.625-1.844-6.313 0-2.5 1.052-5.02 3.156-7.562 2.126-2.542 4.678-4.469 7.657-5.782l1.375 2.22c-2.354 1.145-4.198 2.478-5.532 4-1.333 1.52-2.104 3.364-2.312 5.53h1.75c1.292 0 2.344.146 3.156.438.813.292 1.469.698 1.969 1.219.479.5.813 1.052 1 1.656.208.604.313 1.23.313 1.875z"/><defs><linearGradient id="da" x1="106.713" y1="-44" x2="61.932" y2="46.016" gradientUnits="userSpaceOnUse"><stop stop-color="#F9E0B0"/><stop offset="1" stop-color="#855024"/></linearGradient><linearGradient id="db" x1="293.713" y1="-44" x2="248.932" y2="46.016" gradientUnits="userSpaceOnUse"><stop stop-color="#F9E0B0"/><stop offset="1" stop-color="#855024"/></linearGradient></defs></symbol><symbol viewBox="0 0 42 45" id="header2" xmlns="http://www.w3.org/2000/svg"><path d="M21 45L2.813 18h36.373L21 45z"/><path d="M37.307 10L21 34.21 4.693 10h32.614z" stroke="url(#ea)" stroke-width="2"/><defs><linearGradient id="ea" x1="21" y1="36" x2="21" gradientUnits="userSpaceOnUse"><stop stop-color="#F9E0B0"/><stop offset="1" stop-color="#855024"/></linearGradient></defs></symbol><symbol viewBox="0 0 18 18" id="inst" xmlns="http://www.w3.org/2000/svg"><path d="M12.627 0H5.373C2.418 0 0 2.418 0 5.373v7.254C0 15.582 2.418 18 5.373 18h7.254C15.582 18 18 15.582 18 12.627V5.373C17.91 2.418 15.492 0 12.627 0zm3.492 12.627c0 1.97-1.611 3.492-3.492 3.492H5.373c-1.97 0-3.492-1.611-3.492-3.492V5.373c0-1.97 1.612-3.492 3.492-3.492h7.254c1.97 0 3.492 1.612 3.492 3.492v7.254z"/><path d="M8.955 4.388A4.625 4.625 0 004.3 9.045 4.625 4.625 0 008.955 13.7a4.625 4.625 0 004.657-4.656 4.625 4.625 0 00-4.657-4.657zm0 7.433c-1.522 0-2.865-1.254-2.865-2.866 0-1.522 1.253-2.866 2.865-2.866a2.83 2.83 0 012.866 2.866 2.829 2.829 0 01-2.866 2.866zm4.657-6.358a1.075 1.075 0 100-2.15 1.075 1.075 0 000 2.15z"/></symbol><symbol viewBox="0 0 48 48" id="play" xmlns="http://www.w3.org/2000/svg"><path d="M32.7 24.389l-13.275 8.997V15.392L32.7 24.389z"/><circle cx="24" cy="24" r="23" stroke="#000" stroke-width="2"/></symbol><symbol viewBox="0 0 29 42" id="shevron" xmlns="http://www.w3.org/2000/svg"><path d="M1 41l26-20L1 1" stroke="url(#ha)" stroke-width="2"/><defs><linearGradient id="ha" x1="27" y1="21" x2="-7.667" y2="21" gradientUnits="userSpaceOnUse"><stop stop-color="#F9E0B0"/><stop offset="1" stop-color="#855024"/></linearGradient></defs></symbol><symbol viewBox="0 0 29 42" id="shevron-left" xmlns="http://www.w3.org/2000/svg"><path d="M28 1L2 21l26 20" stroke="url(#ia)" stroke-width="2"/><defs><linearGradient id="ia" x1="2" y1="21" x2="36.667" y2="21" gradientUnits="userSpaceOnUse"><stop stop-color="#F9E0B0"/><stop offset="1" stop-color="#855024"/></linearGradient></defs></symbol><symbol viewBox="0 -39 512.002 512" id="telegram" xmlns="http://www.w3.org/2000/svg"><path d="M504.098 11.863C497.84 4.215 488.473 0 477.718 0c-5.85 0-12.042 1.234-18.41 3.664L25.907 169.105c-23 8.778-26.097 21.95-25.898 29.024.199 7.07 4.039 20.047 27.5 27.508.14.047.281.086.422.129l60.78 17.39 296.017-151.23c7.375-3.774 16.414-.844 20.183 6.535 2.961 5.797 1.774 12.61-2.445 17.094l.012.011-164.586 174.88-4.696 19.027L291.97 356.8l81.445 65.582c.07.055.14.113.215.168 8.96 6.953 18.75 10.625 28.308 10.629 18.68 0 33.551-13.825 37.883-35.215l71.012-350.64c2.848-14.071.457-26.669-6.734-35.462zm0 0"/><path d="M209.715 279.438a14.956 14.956 0 013.633-6.688l107.996-114.754L120.94 260.38l45.504 130.137c2.594 7.414 6.453 13.726 11.227 18.668l32.035-129.75zm-4.113 141.792c10.816-.09 21.445-4.652 30.757-13.226l33.293-30.656-44.39-35.743zm0 0"/></symbol><symbol viewBox="0 0 54 56" id="tr-black" xmlns="http://www.w3.org/2000/svg"><path d="M27 56L3.617 21.5h46.766L27 56z"/><path d="M48.497 12.5L27 44.218 5.503 12.5h42.994z" stroke="url(#ka)" stroke-width="2"/><defs><linearGradient id="ka" x1="27" y1="46" x2="27" gradientUnits="userSpaceOnUse"><stop stop-color="#F9E0B0"/><stop offset="1" stop-color="#855024"/></linearGradient></defs></symbol><symbol viewBox="0 0 54 56" id="tr-white" xmlns="http://www.w3.org/2000/svg"><path d="M27 56L3.617 21.5h46.766L27 56z"/><path d="M48.497 12.5L27 44.218 5.503 12.5h42.994z" stroke="url(#la)" stroke-width="2"/><defs><linearGradient id="la" x1="27" y1="46" x2="27" gradientUnits="userSpaceOnUse"><stop stop-color="#F9E0B0"/><stop offset="1" stop-color="#855024"/></linearGradient></defs></symbol><symbol viewBox="0 0 18 21" id="treugolnik" xmlns="http://www.w3.org/2000/svg"><path d="M17.7 10.389L4.425 19.386V1.392L17.7 10.389z"/></symbol><symbol viewBox="0 0 12 17" id="triangle-gold-left" xmlns="http://www.w3.org/2000/svg"><path d="M1 2.17l9.232 6.33L1 14.83V2.17z" stroke="url(#na)" stroke-width="2"/><defs><linearGradient id="na" x1="12" y1="8.5" x2="-4" y2="8.5" gradientUnits="userSpaceOnUse"><stop stop-color="#F9E0B0"/><stop offset="1" stop-color="#855024"/></linearGradient></defs></symbol></svg>