<svg width="312" height="73" viewBox="0 0 312 73" fill="none" xmlns="http://www.w3.org/2000/svg">
<path d="M125 22L0 22" stroke="url(#paint0_linear)" stroke-width="3"/>
<path d="M312 22L187 22" stroke="url(#paint1_linear)" stroke-width="3"/>
<path d="M153.781 28.25C153.781 29.5833 153.24 30.75 152.156 31.75C151.094 32.75 149.833 33.25 148.375 33.25C146.083 33.25 144.323 32.4896 143.094 30.9688C141.865 29.4479 141.25 27.3438 141.25 24.6562C141.25 22.1562 142.302 19.6354 144.406 17.0938C146.531 14.5521 149.083 12.625 152.062 11.3125L153.438 13.5312C151.083 14.6771 149.24 16.0104 147.906 17.5312C146.573 19.0521 145.802 20.8958 145.594 23.0625H147.344C148.635 23.0625 149.688 23.2083 150.5 23.5C151.312 23.7917 151.969 24.1979 152.469 24.7188C152.948 25.2188 153.281 25.7708 153.469 26.375C153.677 26.9792 153.781 27.6042 153.781 28.25ZM169.188 28.25C169.188 29.5833 168.646 30.75 167.562 31.75C166.5 32.75 165.24 33.25 163.781 33.25C161.49 33.25 159.729 32.4896 158.5 30.9688C157.271 29.4479 156.656 27.3438 156.656 24.6562C156.656 22.1562 157.708 19.6354 159.812 17.0938C161.938 14.5521 164.49 12.625 167.469 11.3125L168.844 13.5312C166.49 14.6771 164.646 16.0104 163.312 17.5312C161.979 19.0521 161.208 20.8958 161 23.0625H162.75C164.042 23.0625 165.094 23.2083 165.906 23.5C166.719 23.7917 167.375 24.1979 167.875 24.7188C168.354 25.2188 168.688 25.7708 168.875 26.375C169.083 26.9792 169.188 27.6042 169.188 28.25Z" fill="white"/>
<defs>
<linearGradient id="paint0_linear" x1="106.713" y1="-44" x2="61.9324" y2="46.0156" gradientUnits="userSpaceOnUse">
<stop stop-color="#F9E0B0"/>
<stop offset="1" stop-color="#855024"/>
</linearGradient>
<linearGradient id="paint1_linear" x1="293.713" y1="-44" x2="248.932" y2="46.0156" gradientUnits="userSpaceOnUse">
<stop stop-color="#F9E0B0"/>
<stop offset="1" stop-color="#855024"/>
</linearGradient>
</defs>
</svg>
