<svg width="18" height="18" viewBox="0 0 18 18" fill="none" xmlns="http://www.w3.org/2000/svg">
<path d="M12.6269 0H5.37313C2.41791 0 0 2.41791 0 5.37313V12.6269C0 15.5821 2.41791 18 5.37313 18H12.6269C15.5821 18 18 15.5821 18 12.6269V5.37313C17.9104 2.41791 15.4925 0 12.6269 0ZM16.1194 12.6269C16.1194 14.597 14.5075 16.1194 12.6269 16.1194H5.37313C3.40298 16.1194 1.8806 14.5075 1.8806 12.6269V5.37313C1.8806 3.40298 3.49254 1.8806 5.37313 1.8806H12.6269C14.597 1.8806 16.1194 3.49254 16.1194 5.37313V12.6269Z" fill="white"/>
<path d="M8.9553 4.388C6.35829 4.388 4.29858 6.4477 4.29858 9.04472C4.29858 11.6417 6.35829 13.7014 8.9553 13.7014C11.5523 13.7014 13.612 11.6417 13.612 9.04472C13.612 6.4477 11.5523 4.388 8.9553 4.388ZM8.9553 11.8208C7.43291 11.8208 6.08963 10.5671 6.08963 8.95516C6.08963 7.43278 7.34336 6.08949 8.9553 6.08949C10.5672 6.08949 11.821 7.34322 11.821 8.95516C11.821 10.5671 10.5672 11.8208 8.9553 11.8208Z" fill="white"/>
<path d="M13.612 5.46267C14.2055 5.46267 14.6866 4.98154 14.6866 4.38804C14.6866 3.79454 14.2055 3.31342 13.612 3.31342C13.0185 3.31342 12.5374 3.79454 12.5374 4.38804C12.5374 4.98154 13.0185 5.46267 13.612 5.46267Z" fill="white"/>
</svg>
