<svg width="216" height="28" viewBox="0 0 216 28" fill="none" xmlns="http://www.w3.org/2000/svg">
<path d="M3.904 26H0.16L5.2 0.188L13.552 18.836L21.976 0.188L26.512 26H22.768L20.32 11.528L13.336 27.116L6.424 11.492L3.904 26ZM48.8883 26L46.3683 20.204H36.1082L33.4802 26H29.5202L41.4723 0.583999L52.8482 26H48.8883ZM37.6202 16.748H44.8923L41.3282 8.612L37.6202 16.748ZM59.4607 26V15.632L51.5767 1.988H55.7527L61.2967 11.6L66.8407 1.988H71.0167L63.1327 15.632V26H59.4607ZM75.9403 5.12C78.3163 2.744 81.2923 1.556 84.8683 1.556C88.4443 1.556 91.4203 2.744 93.7963 5.12C96.1723 7.496 97.3603 10.46 97.3603 14.012C97.3603 17.564 96.1723 20.528 93.7963 22.904C91.4203 25.28 88.4443 26.468 84.8683 26.468C81.2923 26.468 78.3163 25.28 75.9403 22.904C73.5643 20.528 72.3763 17.564 72.3763 14.012C72.3763 10.46 73.5643 7.496 75.9403 5.12ZM78.5323 20.564C80.1883 22.244 82.3003 23.084 84.8683 23.084C87.4363 23.084 89.5483 22.244 91.2043 20.564C92.8603 18.86 93.6883 16.676 93.6883 14.012C93.6883 11.348 92.8603 9.176 91.2043 7.496C89.5483 5.792 87.4363 4.94 84.8683 4.94C82.3003 4.94 80.1883 5.792 78.5323 7.496C76.8763 9.176 76.0483 11.348 76.0483 14.012C76.0483 16.676 76.8763 18.86 78.5323 20.564ZM106.362 26H102.69V0.368L120.114 18.62V1.988H123.786V27.476L106.362 9.224V26ZM143.517 1.988V5.444H133.941V11.528H143.229V14.984H133.941V22.544H143.517V26H130.269V1.988H143.517ZM156.909 14.588H153.813V26H152.229V1.988H156.873C158.913 1.988 160.593 2.54 161.913 3.644C163.233 4.724 163.893 6.26 163.893 8.252C163.893 10.22 163.257 11.768 161.985 12.896C160.713 14.024 159.021 14.588 156.909 14.588ZM153.813 3.428V13.148H156.981C158.565 13.148 159.837 12.716 160.797 11.852C161.757 10.964 162.237 9.776 162.237 8.288C162.237 6.776 161.745 5.588 160.761 4.724C159.801 3.86 158.457 3.428 156.729 3.428H153.813ZM183.775 26H181.975L174.199 14.66H173.479V26H171.895V1.988H175.351C177.535 1.988 179.227 2.396 180.427 3.212C182.083 4.364 182.911 6.08 182.911 8.36C182.911 9.68 182.587 10.868 181.939 11.924C181.291 12.956 180.271 13.712 178.879 14.192C177.967 14.504 176.983 14.66 175.927 14.66L183.775 26ZM173.479 3.428V13.22H175.783C177.487 13.22 178.819 12.788 179.779 11.924C180.763 11.06 181.255 9.86 181.255 8.324C181.255 6.308 180.547 4.916 179.131 4.148C178.291 3.668 177.067 3.428 175.459 3.428H173.479ZM194.253 5.264C196.653 2.864 199.605 1.664 203.109 1.664C206.613 1.664 209.565 2.864 211.965 5.264C214.365 7.664 215.565 10.592 215.565 14.048C215.565 17.504 214.365 20.432 211.965 22.832C209.565 25.208 206.613 26.396 203.109 26.396C199.581 26.396 196.617 25.208 194.217 22.832C191.841 20.432 190.653 17.504 190.653 14.048C190.653 10.592 191.853 7.664 194.253 5.264ZM195.405 21.824C197.469 23.912 200.037 24.956 203.109 24.956C206.181 24.956 208.749 23.912 210.813 21.824C212.877 19.712 213.909 17.12 213.909 14.048C213.909 10.952 212.877 8.36 210.813 6.272C208.749 4.16 206.181 3.104 203.109 3.104C200.037 3.104 197.469 4.16 195.405 6.272C193.341 8.36 192.309 10.952 192.309 14.048C192.309 17.12 193.341 19.712 195.405 21.824Z" fill="white"/>
</svg>
